<svg viewBox="0 0 32 32" focusable="false" stroke="none" stroke-width="0" aria-labelledby="label-8d48991b-63f4-4cc1-abfc-76caca8c918c" aria-hidden="true"><title >Icon</title><path d="M23.4091683,8.594 C24.1731683,9.359 24.1731683,10.693 23.4091683,11.458 L22.6901683,12.178 L19.8241683,9.313 L20.5451683,8.594 C21.3101683,7.83 22.6441683,7.829 23.4091683,8.594 L23.4091683,8.594 Z M8.37616832,23.626 L8.97116832,21.252 L10.7501683,23.033 L8.37616832,23.626 Z M18.4111683,10.728 L21.2741683,13.591 L12.7061683,22.159 L9.84316832,19.296 L18.4111683,10.728 Z M24.8211683,7.179 C24.0611683,6.418 23.0501683,6 21.9741683,6 C20.9001683,6 19.8881683,6.418 19.1281683,7.179 L7.71916832,18.587 C7.71916832,18.587 7.71816832,18.59 7.71716832,18.591 C7.63616832,18.673 7.49716832,18.889 7.45616832,19.052 L6.03016832,24.757 C5.94416832,25.097 6.04516832,25.458 6.29316832,25.706 L6.29416832,25.707 L6.29616832,25.708 C6.54416832,25.956 6.90416832,26.057 7.24516832,25.972 L12.9491683,24.545 C13.1121683,24.504 13.3291683,24.365 13.4101683,24.284 C13.4111683,24.283 13.4141683,24.282 13.4141683,24.282 L24.8231683,12.873 C25.5831683,12.113 26.0021683,11.102 26.0011683,10.027 C26.0011683,8.951 25.5831683,7.941 24.8231683,7.18 L24.8211683,7.179 Z" style="fill: rgb(0, 0, 0);"></path></svg>