<svg x="0px" y="0px" viewBox="0 0 16 16">
                                            <path fill="#fff" d="M7.5,6.5h-2l1-1.6L7.5,6.5z M6.6,11.1c0.4,0,0.8-0.4,0.8-0.8S7,9.5,6.6,9.5s-0.8,0.4-0.8,0.8S6.1,11.1,6.6,11.1
                                                      z M11.8,9.5h-1.5V11h1.5V9.5z M10,5.8l1,1l1-1l-1-1L10,5.8z M13.8,4.5v7c0,0.8-0.7,1.5-1.5,1.5h-7c-0.8,0-1.5-0.7-1.5-1.5v-7
                                                      C3.8,3.7,4.4,3,5.2,3h7C13.1,3,13.8,3.7,13.8,4.5z M8.2,8.5H4.8v3C4.8,11.8,5,12,5.2,12h3V8.5z M8.2,4h-3C5,4,4.8,4.2,4.8,4.5v3h3.5
                                                      V4z M12.8,8.5H9.2V12h3c0.3,0,0.5-0.2,0.5-0.5V8.5z M12.8,4.5c0-0.3-0.2-0.5-0.5-0.5h-3v3.5h3.5V4.5z"></path>
                                        </svg>