<svg xmlns="http://www.w3.org/2000/svg" xmlns:xlink="http://www.w3.org/1999/xlink" width="110" zoomAndPan="magnify" viewBox="0 0 82.5 30.000001" height="40" preserveAspectRatio="xMidYMid meet" version="1.0"><defs><g/><clipPath id="9bfbf5948b"><path d="M 1.089844 5 L 11 5 L 11 22 L 1.089844 22 Z M 1.089844 5 " clip-rule="nonzero"/></clipPath><clipPath id="12d80005b1"><path d="M 74 3 L 80.925781 3 L 80.925781 22 L 74 22 Z M 74 3 " clip-rule="nonzero"/></clipPath></defs><g clip-path="url(#9bfbf5948b)"><g fill="#ffffff" fill-opacity="1"><g transform="translate(0.361229, 21.566636)"><g><path d="M 6.78125 -7.015625 C 6.75 -6.628906 6.71875 -6.316406 6.6875 -6.078125 C 6.65625 -5.847656 6.644531 -5.664062 6.65625 -5.53125 C 6.664062 -5.40625 6.703125 -5.300781 6.765625 -5.21875 C 6.828125 -5.132812 6.925781 -5.050781 7.0625 -4.96875 C 7.445312 -5.070312 7.804688 -5.09375 8.140625 -5.03125 C 8.484375 -4.976562 8.765625 -4.851562 8.984375 -4.65625 C 9.203125 -4.457031 9.328125 -4.191406 9.359375 -3.859375 C 9.410156 -3.460938 9.359375 -3.070312 9.203125 -2.6875 C 9.054688 -2.3125 8.832031 -1.957031 8.53125 -1.625 C 8.238281 -1.300781 7.894531 -1.015625 7.5 -0.765625 C 7.101562 -0.523438 6.679688 -0.335938 6.234375 -0.203125 C 5.785156 -0.0664062 5.335938 0 4.890625 0 C 4.160156 0 3.539062 -0.132812 3.03125 -0.40625 C 2.519531 -0.675781 2.097656 -1.054688 1.765625 -1.546875 C 1.441406 -2.035156 1.191406 -2.613281 1.015625 -3.28125 C 0.847656 -3.945312 0.738281 -4.671875 0.6875 -5.453125 C 0.632812 -6.242188 0.628906 -7.078125 0.671875 -7.953125 C 0.710938 -8.835938 0.78125 -9.734375 0.875 -10.640625 C 0.976562 -11.546875 1.09375 -12.445312 1.21875 -13.34375 C 1.40625 -14.632812 1.769531 -15.46875 2.3125 -15.84375 L 5.734375 -16.1875 C 6.035156 -16.25 6.320312 -16.296875 6.59375 -16.328125 C 6.875 -16.359375 7.148438 -16.375 7.421875 -16.375 C 7.953125 -16.375 8.382812 -16.285156 8.71875 -16.109375 C 9.050781 -15.941406 9.285156 -15.722656 9.421875 -15.453125 C 9.554688 -15.191406 9.59375 -14.910156 9.53125 -14.609375 C 9.476562 -14.304688 9.328125 -14.019531 9.078125 -13.75 C 8.835938 -13.488281 8.5 -13.269531 8.0625 -13.09375 C 7.632812 -12.925781 7.113281 -12.84375 6.5 -12.84375 C 6.457031 -12.351562 6.410156 -11.960938 6.359375 -11.671875 C 6.316406 -11.378906 6.289062 -11.15625 6.28125 -11 C 6.269531 -10.851562 6.296875 -10.75 6.359375 -10.6875 C 6.421875 -10.625 6.535156 -10.578125 6.703125 -10.546875 C 7.085938 -10.859375 7.585938 -11.015625 8.203125 -11.015625 C 8.523438 -11.015625 8.828125 -10.945312 9.109375 -10.8125 C 9.390625 -10.6875 9.613281 -10.503906 9.78125 -10.265625 C 9.945312 -10.023438 10.019531 -9.742188 10 -9.421875 C 10 -8.816406 9.863281 -8.335938 9.59375 -7.984375 C 9.320312 -7.628906 8.941406 -7.378906 8.453125 -7.234375 C 7.972656 -7.085938 7.414062 -7.015625 6.78125 -7.015625 Z M 6.78125 -7.015625 "/></g></g></g></g><g fill="#ffffff" fill-opacity="1"><g transform="translate(9.548072, 21.566636)"><g><path d="M 10.90625 -8.765625 C 10.90625 -7.753906 10.78125 -6.78125 10.53125 -5.84375 C 10.289062 -4.90625 9.929688 -4.046875 9.453125 -3.265625 C 8.984375 -2.484375 8.394531 -1.8125 7.6875 -1.25 C 6.976562 -0.6875 6.160156 -0.273438 5.234375 -0.015625 C 4.890625 0.00390625 4.523438 0 4.140625 -0.03125 C 3.765625 -0.0625 3.394531 -0.113281 3.03125 -0.1875 C 2.675781 -0.269531 2.347656 -0.378906 2.046875 -0.515625 C 1.753906 -0.648438 1.515625 -0.8125 1.328125 -1 C 1.140625 -1.1875 1.035156 -1.40625 1.015625 -1.65625 C 0.984375 -2.257812 0.941406 -2.945312 0.890625 -3.71875 C 0.847656 -4.5 0.8125 -5.316406 0.78125 -6.171875 C 0.75 -7.023438 0.71875 -7.878906 0.6875 -8.734375 C 0.664062 -9.597656 0.648438 -10.414062 0.640625 -11.1875 C 0.640625 -11.96875 0.644531 -12.671875 0.65625 -13.296875 C 0.664062 -13.921875 0.691406 -14.425781 0.734375 -14.8125 C 0.867188 -15.09375 1.101562 -15.316406 1.4375 -15.484375 C 1.769531 -15.648438 2.164062 -15.769531 2.625 -15.84375 C 3.082031 -15.914062 3.566406 -15.945312 4.078125 -15.9375 C 4.585938 -15.925781 5.082031 -15.882812 5.5625 -15.8125 C 6.039062 -15.75 6.460938 -15.664062 6.828125 -15.5625 C 7.410156 -15.289062 7.945312 -14.910156 8.4375 -14.421875 C 8.9375 -13.929688 9.367188 -13.375 9.734375 -12.75 C 10.109375 -12.132812 10.394531 -11.484375 10.59375 -10.796875 C 10.800781 -10.109375 10.90625 -9.429688 10.90625 -8.765625 Z M 4.71875 -10.78125 C 4.875 -9.820312 4.972656 -8.210938 5.015625 -5.953125 C 5.335938 -6.179688 5.601562 -6.46875 5.8125 -6.8125 C 6.03125 -7.15625 6.191406 -7.523438 6.296875 -7.921875 C 6.398438 -8.316406 6.445312 -8.703125 6.4375 -9.078125 C 6.425781 -9.453125 6.351562 -9.785156 6.21875 -10.078125 C 6.09375 -10.367188 5.90625 -10.582031 5.65625 -10.71875 C 5.40625 -10.851562 5.09375 -10.875 4.71875 -10.78125 Z M 4.71875 -10.78125 "/></g></g></g><g fill="#ffffff" fill-opacity="1"><g transform="translate(19.644295, 21.566636)"><g><path d="M 7 0 C 6.039062 0 5.164062 -0.144531 4.375 -0.4375 C 3.59375 -0.726562 2.921875 -1.160156 2.359375 -1.734375 C 1.804688 -2.316406 1.390625 -3.039062 1.109375 -3.90625 C 0.960938 -4.382812 0.847656 -4.945312 0.765625 -5.59375 C 0.691406 -6.25 0.65625 -6.945312 0.65625 -7.6875 C 0.65625 -8.425781 0.679688 -9.171875 0.734375 -9.921875 C 0.796875 -10.671875 0.878906 -11.390625 0.984375 -12.078125 C 1.085938 -12.765625 1.222656 -13.375 1.390625 -13.90625 C 1.484375 -14.25 1.660156 -14.566406 1.921875 -14.859375 C 2.191406 -15.148438 2.5 -15.390625 2.84375 -15.578125 C 3.1875 -15.773438 3.523438 -15.890625 3.859375 -15.921875 C 4.328125 -15.960938 4.734375 -15.882812 5.078125 -15.6875 C 5.421875 -15.488281 5.6875 -15.203125 5.875 -14.828125 C 6.070312 -14.453125 6.171875 -14.015625 6.171875 -13.515625 C 6.171875 -13.285156 6.144531 -12.972656 6.09375 -12.578125 C 6.039062 -12.191406 5.976562 -11.765625 5.90625 -11.296875 C 5.832031 -10.835938 5.757812 -10.375 5.6875 -9.90625 C 5.625 -9.445312 5.566406 -9.03125 5.515625 -8.65625 C 5.460938 -8.28125 5.4375 -7.988281 5.4375 -7.78125 C 5.4375 -7.28125 5.503906 -6.878906 5.640625 -6.578125 C 5.785156 -6.273438 5.960938 -6.070312 6.171875 -5.96875 C 6.390625 -5.875 6.609375 -5.875 6.828125 -5.96875 C 7.054688 -6.0625 7.257812 -6.25 7.4375 -6.53125 C 7.625 -6.820312 7.75 -7.203125 7.8125 -7.671875 C 7.800781 -8.460938 7.800781 -9.234375 7.8125 -9.984375 C 7.820312 -10.742188 7.859375 -11.457031 7.921875 -12.125 C 7.984375 -12.800781 8.078125 -13.414062 8.203125 -13.96875 C 8.328125 -14.53125 8.519531 -14.992188 8.78125 -15.359375 C 9.039062 -15.734375 9.335938 -16.007812 9.671875 -16.1875 C 10.003906 -16.363281 10.347656 -16.445312 10.703125 -16.4375 C 11.054688 -16.425781 11.390625 -16.320312 11.703125 -16.125 C 12.023438 -15.9375 12.300781 -15.65625 12.53125 -15.28125 C 12.769531 -14.90625 12.929688 -14.441406 13.015625 -13.890625 C 13.179688 -12.847656 13.257812 -11.78125 13.25 -10.6875 C 13.238281 -9.601562 13.144531 -8.539062 12.96875 -7.5 C 12.789062 -6.46875 12.53125 -5.5 12.1875 -4.59375 C 11.851562 -3.6875 11.4375 -2.890625 10.9375 -2.203125 C 10.4375 -1.515625 9.859375 -0.972656 9.203125 -0.578125 C 8.546875 -0.191406 7.8125 0 7 0 Z M 7 0 "/></g></g></g><g fill="#ffffff" fill-opacity="1"><g transform="translate(32.089717, 21.566636)"><g><path d="M 11.46875 -4.484375 C 11.90625 -3.972656 12.203125 -3.472656 12.359375 -2.984375 C 12.515625 -2.492188 12.5625 -2.039062 12.5 -1.625 C 12.445312 -1.21875 12.304688 -0.863281 12.078125 -0.5625 C 11.859375 -0.257812 11.578125 -0.0351562 11.234375 0.109375 C 10.898438 0.253906 10.53125 0.296875 10.125 0.234375 C 9.71875 0.179688 9.304688 0.0078125 8.890625 -0.28125 C 8.472656 -0.570312 8.078125 -1.007812 7.703125 -1.59375 C 6.804688 -1.363281 5.988281 -1.3125 5.25 -1.4375 C 4.507812 -1.5625 3.851562 -1.832031 3.28125 -2.25 C 2.71875 -2.664062 2.238281 -3.203125 1.84375 -3.859375 C 1.445312 -4.515625 1.148438 -5.257812 0.953125 -6.09375 C 0.753906 -6.9375 0.65625 -7.835938 0.65625 -8.796875 C 0.65625 -9.722656 0.710938 -10.625 0.828125 -11.5 C 0.941406 -12.375 1.128906 -13.1875 1.390625 -13.9375 C 1.648438 -14.695312 1.988281 -15.363281 2.40625 -15.9375 C 2.832031 -16.507812 3.34375 -16.957031 3.9375 -17.28125 C 4.539062 -17.613281 5.242188 -17.78125 6.046875 -17.78125 C 6.535156 -17.78125 6.960938 -17.726562 7.328125 -17.625 C 7.703125 -17.53125 8.046875 -17.382812 8.359375 -17.1875 C 8.671875 -17 8.984375 -16.757812 9.296875 -16.46875 C 9.617188 -16.175781 9.976562 -15.832031 10.375 -15.4375 C 10.757812 -15.03125 11.082031 -14.550781 11.34375 -14 C 11.601562 -13.445312 11.804688 -12.847656 11.953125 -12.203125 C 12.109375 -11.554688 12.207031 -10.882812 12.25 -10.1875 C 12.289062 -9.5 12.285156 -8.8125 12.234375 -8.125 C 12.179688 -7.445312 12.09375 -6.796875 11.96875 -6.171875 C 11.84375 -5.554688 11.675781 -4.992188 11.46875 -4.484375 Z M 7.09375 -7.0625 L 6.578125 -11.078125 C 6.546875 -11.535156 6.457031 -11.765625 6.3125 -11.765625 C 6.164062 -11.773438 6.003906 -11.585938 5.828125 -11.203125 C 5.648438 -10.835938 5.539062 -10.382812 5.5 -9.84375 C 5.457031 -9.3125 5.445312 -8.71875 5.46875 -8.0625 C 5.5 -7.414062 5.53125 -6.742188 5.5625 -6.046875 C 5.5625 -5.972656 5.609375 -5.941406 5.703125 -5.953125 C 5.796875 -5.960938 5.84375 -6.015625 5.84375 -6.109375 C 5.875 -6.304688 5.929688 -6.5 6.015625 -6.6875 C 6.097656 -6.882812 6.195312 -7.019531 6.3125 -7.09375 C 6.425781 -7.175781 6.546875 -7.148438 6.671875 -7.015625 C 6.796875 -6.878906 6.90625 -6.820312 7 -6.84375 C 7.09375 -6.875 7.125 -6.945312 7.09375 -7.0625 Z M 7.09375 -7.0625 "/></g></g></g><g fill="#ffffff" fill-opacity="1"><g transform="translate(43.80981, 21.566636)"><g><path d="M 7 0 C 6.039062 0 5.164062 -0.144531 4.375 -0.4375 C 3.59375 -0.726562 2.921875 -1.160156 2.359375 -1.734375 C 1.804688 -2.316406 1.390625 -3.039062 1.109375 -3.90625 C 0.960938 -4.382812 0.847656 -4.945312 0.765625 -5.59375 C 0.691406 -6.25 0.65625 -6.945312 0.65625 -7.6875 C 0.65625 -8.425781 0.679688 -9.171875 0.734375 -9.921875 C 0.796875 -10.671875 0.878906 -11.390625 0.984375 -12.078125 C 1.085938 -12.765625 1.222656 -13.375 1.390625 -13.90625 C 1.484375 -14.25 1.660156 -14.566406 1.921875 -14.859375 C 2.191406 -15.148438 2.5 -15.390625 2.84375 -15.578125 C 3.1875 -15.773438 3.523438 -15.890625 3.859375 -15.921875 C 4.328125 -15.960938 4.734375 -15.882812 5.078125 -15.6875 C 5.421875 -15.488281 5.6875 -15.203125 5.875 -14.828125 C 6.070312 -14.453125 6.171875 -14.015625 6.171875 -13.515625 C 6.171875 -13.285156 6.144531 -12.972656 6.09375 -12.578125 C 6.039062 -12.191406 5.976562 -11.765625 5.90625 -11.296875 C 5.832031 -10.835938 5.757812 -10.375 5.6875 -9.90625 C 5.625 -9.445312 5.566406 -9.03125 5.515625 -8.65625 C 5.460938 -8.28125 5.4375 -7.988281 5.4375 -7.78125 C 5.4375 -7.28125 5.503906 -6.878906 5.640625 -6.578125 C 5.785156 -6.273438 5.960938 -6.070312 6.171875 -5.96875 C 6.390625 -5.875 6.609375 -5.875 6.828125 -5.96875 C 7.054688 -6.0625 7.257812 -6.25 7.4375 -6.53125 C 7.625 -6.820312 7.75 -7.203125 7.8125 -7.671875 C 7.800781 -8.460938 7.800781 -9.234375 7.8125 -9.984375 C 7.820312 -10.742188 7.859375 -11.457031 7.921875 -12.125 C 7.984375 -12.800781 8.078125 -13.414062 8.203125 -13.96875 C 8.328125 -14.53125 8.519531 -14.992188 8.78125 -15.359375 C 9.039062 -15.734375 9.335938 -16.007812 9.671875 -16.1875 C 10.003906 -16.363281 10.347656 -16.445312 10.703125 -16.4375 C 11.054688 -16.425781 11.390625 -16.320312 11.703125 -16.125 C 12.023438 -15.9375 12.300781 -15.65625 12.53125 -15.28125 C 12.769531 -14.90625 12.929688 -14.441406 13.015625 -13.890625 C 13.179688 -12.847656 13.257812 -11.78125 13.25 -10.6875 C 13.238281 -9.601562 13.144531 -8.539062 12.96875 -7.5 C 12.789062 -6.46875 12.53125 -5.5 12.1875 -4.59375 C 11.851562 -3.6875 11.4375 -2.890625 10.9375 -2.203125 C 10.4375 -1.515625 9.859375 -0.972656 9.203125 -0.578125 C 8.546875 -0.191406 7.8125 0 7 0 Z M 7 0 "/></g></g></g><g fill="#ffffff" fill-opacity="1"><g transform="translate(56.25523, 21.566636)"><g><path d="M 4.109375 0.078125 C 3.328125 0.160156 2.660156 -0.0820312 2.109375 -0.65625 C 1.554688 -1.238281 1.15625 -2.128906 0.90625 -3.328125 C 0.65625 -4.523438 0.585938 -6.015625 0.703125 -7.796875 C 0.816406 -9.585938 1.148438 -11.65625 1.703125 -14 C 1.765625 -14.320312 1.894531 -14.582031 2.09375 -14.78125 C 2.289062 -14.988281 2.53125 -15.144531 2.8125 -15.25 C 3.101562 -15.363281 3.414062 -15.4375 3.75 -15.46875 C 4.082031 -15.507812 4.410156 -15.53125 4.734375 -15.53125 C 5.203125 -15.53125 5.550781 -15.445312 5.78125 -15.28125 C 6.019531 -15.125 6.1875 -14.875 6.28125 -14.53125 C 6.375 -14.1875 6.425781 -13.738281 6.4375 -13.1875 C 6.457031 -12.632812 6.484375 -11.96875 6.515625 -11.1875 C 6.535156 -10.394531 6.550781 -9.578125 6.5625 -8.734375 C 6.570312 -7.898438 6.554688 -7.082031 6.515625 -6.28125 C 6.484375 -5.476562 6.421875 -4.71875 6.328125 -4 C 6.234375 -3.289062 6.09375 -2.648438 5.90625 -2.078125 C 5.726562 -1.503906 5.492188 -1.03125 5.203125 -0.65625 C 4.910156 -0.28125 4.546875 -0.0351562 4.109375 0.078125 Z M 4.109375 0.078125 "/></g></g></g><g fill="#ffffff" fill-opacity="1"><g transform="translate(62.01028, 21.566636)"><g><path d="M 12 -2.71875 C 11.84375 -2.195312 11.570312 -1.742188 11.1875 -1.359375 C 10.8125 -0.984375 10.351562 -0.675781 9.8125 -0.4375 C 9.269531 -0.207031 8.675781 -0.0390625 8.03125 0.0625 C 7.382812 0.164062 6.710938 0.203125 6.015625 0.171875 C 5.328125 0.148438 4.644531 0.0625 3.96875 -0.09375 C 3.300781 -0.25 2.664062 -0.460938 2.0625 -0.734375 C 1.582031 -0.941406 1.226562 -1.234375 1 -1.609375 C 0.78125 -1.992188 0.664062 -2.429688 0.65625 -2.921875 C 0.644531 -3.410156 0.722656 -3.9375 0.890625 -4.5 C 1.054688 -5.0625 1.289062 -5.628906 1.59375 -6.203125 C 1.90625 -6.785156 2.269531 -7.359375 2.6875 -7.921875 C 2.8125 -8.078125 2.992188 -8.265625 3.234375 -8.484375 C 3.472656 -8.710938 3.738281 -8.957031 4.03125 -9.21875 C 4.320312 -9.476562 4.597656 -9.734375 4.859375 -9.984375 C 5.128906 -10.234375 5.347656 -10.457031 5.515625 -10.65625 C 5.679688 -10.863281 5.757812 -11.023438 5.75 -11.140625 C 5.75 -11.265625 5.625 -11.328125 5.375 -11.328125 C 4.769531 -11.234375 4.21875 -11.171875 3.71875 -11.140625 C 3.226562 -11.117188 2.800781 -11.164062 2.4375 -11.28125 C 2.082031 -11.394531 1.804688 -11.609375 1.609375 -11.921875 C 1.421875 -12.242188 1.328125 -12.695312 1.328125 -13.28125 C 1.328125 -14.039062 1.46875 -14.640625 1.75 -15.078125 C 2.039062 -15.515625 2.457031 -15.832031 3 -16.03125 C 3.550781 -16.238281 4.21875 -16.367188 5 -16.421875 C 5.78125 -16.484375 6.660156 -16.515625 7.640625 -16.515625 C 8.691406 -16.515625 9.5625 -16.4375 10.25 -16.28125 C 10.9375 -16.125 11.453125 -15.84375 11.796875 -15.4375 C 12.140625 -15.03125 12.3125 -14.457031 12.3125 -13.71875 C 12.3125 -11.1875 10.53125 -8.398438 6.96875 -5.359375 L 7.1875 -4.9375 C 7.769531 -5.039062 8.332031 -5.113281 8.875 -5.15625 C 9.414062 -5.207031 9.910156 -5.203125 10.359375 -5.140625 C 10.804688 -5.085938 11.179688 -4.96875 11.484375 -4.78125 C 11.785156 -4.59375 11.984375 -4.332031 12.078125 -4 C 12.179688 -3.664062 12.15625 -3.238281 12 -2.71875 Z M 12 -2.71875 "/></g></g></g><g clip-path="url(#12d80005b1)"><g fill="#ffffff" fill-opacity="1"><g transform="translate(73.513846, 21.566636)"><g><path d="M 3.828125 -6.078125 C 3.753906 -7.171875 3.570312 -8.238281 3.28125 -9.28125 C 3 -10.332031 2.640625 -11.378906 2.203125 -12.421875 C 1.773438 -13.460938 1.304688 -14.507812 0.796875 -15.5625 C 0.628906 -15.96875 0.585938 -16.335938 0.671875 -16.671875 C 0.753906 -17.015625 0.925781 -17.3125 1.1875 -17.5625 C 1.457031 -17.8125 1.773438 -18.003906 2.140625 -18.140625 C 2.515625 -18.273438 2.910156 -18.332031 3.328125 -18.3125 C 3.753906 -18.300781 4.164062 -18.195312 4.5625 -18 C 4.96875 -17.8125 5.328125 -17.515625 5.640625 -17.109375 C 5.953125 -16.710938 6.1875 -16.195312 6.34375 -15.5625 C 6.613281 -14.664062 6.820312 -13.695312 6.96875 -12.65625 C 7.125 -11.613281 7.210938 -10.550781 7.234375 -9.46875 C 7.253906 -8.382812 7.191406 -7.34375 7.046875 -6.34375 C 6.992188 -5.914062 6.847656 -5.566406 6.609375 -5.296875 C 6.378906 -5.023438 6.113281 -4.835938 5.8125 -4.734375 C 5.507812 -4.628906 5.207031 -4.609375 4.90625 -4.671875 C 4.613281 -4.734375 4.363281 -4.878906 4.15625 -5.109375 C 3.957031 -5.335938 3.847656 -5.660156 3.828125 -6.078125 Z M 5.4375 0 C 5.101562 0 4.796875 -0.0820312 4.515625 -0.25 C 4.234375 -0.414062 4.007812 -0.640625 3.84375 -0.921875 C 3.675781 -1.203125 3.59375 -1.507812 3.59375 -1.84375 C 3.59375 -2.175781 3.675781 -2.484375 3.84375 -2.765625 C 4.007812 -3.046875 4.234375 -3.269531 4.515625 -3.4375 C 4.796875 -3.601562 5.101562 -3.6875 5.4375 -3.6875 C 5.769531 -3.6875 6.078125 -3.601562 6.359375 -3.4375 C 6.640625 -3.269531 6.863281 -3.046875 7.03125 -2.765625 C 7.195312 -2.484375 7.28125 -2.175781 7.28125 -1.84375 C 7.28125 -1.507812 7.195312 -1.203125 7.03125 -0.921875 C 6.863281 -0.640625 6.640625 -0.414062 6.359375 -0.25 C 6.078125 -0.0820312 5.769531 0 5.4375 0 Z M 5.4375 0 "/></g></g></g></g></svg>